<?xml version="1.0" encoding="UTF-8"?>
<svg width="40px" height="30px" viewBox="0 0 40 30" version="1.1" xmlns="http://www.w3.org/2000/svg" xmlns:xlink="http://www.w3.org/1999/xlink">
    <!-- Generator: Sketch 49.1 (51147) - http://www.bohemiancoding.com/sketch -->
    <title>Group 2</title>
    <desc>Created with Sketch.</desc>
    <defs></defs>
    <g id="小程序新设计" stroke="none" stroke-width="1" fill="none" fill-rule="evenodd">
        <g id="产品列表" transform="translate(-105.000000, -1492.000000)">
            <g id="Group-2" transform="translate(105.000000, 1487.000000)">
                <g id="name-plate-men" transform="translate(0.000000, 5.000000)">
                    <path d="M39.1666667,0.833333333 L0.833333333,0.833333333 C0.373333333,0.833333333 0,1.20666667 0,1.66666667 L0,28.3333333 C0,28.7933333 0.373333333,29.1666667 0.833333333,29.1666667 L39.1666667,29.1666667 C39.6266667,29.1666667 40,28.7933333 40,28.3333333 L40,1.66666667 C40,1.20666667 39.6266667,0.833333333 39.1666667,0.833333333 Z" id="Shape" fill="#FFFFFF" fill-rule="nonzero"></path>
                    <path d="M20.8333333,24.5 L4.16666667,24.5 C3.70666667,24.5 3.33333333,24.1266667 3.33333333,23.6666667 C3.33333333,21.5766667 4.74833333,19.7633333 6.775,19.2566667 L9.27666667,18.6316667 L9.39833333,18.1416667 C8.79,17.4433333 8.35666667,16.5633333 8.16666667,15.655 C7.65833333,15.4333333 7.31333333,14.9833333 7.245,14.44 L7.06333333,12.99 C7.00833333,12.545 7.14666667,12.1 7.44166667,11.765 C7.54,11.6533333 7.65333333,11.5583333 7.77666667,11.48 C7.73,11.05 7.68,10.535 7.68,10.26 C7.68,8.865 8.08333333,7.01666667 11.5133333,6.895 C12.6783333,6.16666667 13.8766667,6.16666667 14.4066667,6.16666667 C16.2083333,6.16666667 17.1083333,6.96333333 17.545,7.63 C18.4666667,9.03666667 17.885,10.0116667 17.455,10.4683333 L17.3016667,10.6216667 L17.2583333,11.505 C17.37,11.58 17.4733333,11.67 17.5633333,11.7733333 C17.8533333,12.1066667 17.99,12.55 17.935,12.9883333 L17.7533333,14.4383333 C17.6866667,14.9633333 17.3633333,15.4016667 16.92,15.63 C16.7283333,16.58 16.2683333,17.4933333 15.6183333,18.21 L15.7233333,18.6283333 L18.225,19.2533333 C20.2516667,19.76 21.6666667,21.5716667 21.6666667,23.6616667 C21.6666667,24.125 21.2933333,24.5 20.8333333,24.5 Z" id="Path" fill="#4A8CF2"></path>
                    <path d="M35.8333333,21.1666667 L24.1666667,21.1666667 C23.7066667,21.1666667 23.3333333,20.7933333 23.3333333,20.3333333 C23.3333333,19.8733333 23.7066667,19.5 24.1666667,19.5 L35.8333333,19.5 C36.2933333,19.5 36.6666667,19.8733333 36.6666667,20.3333333 C36.6666667,20.7933333 36.2933333,21.1666667 35.8333333,21.1666667 Z" id="Path" fill="#BDC6CF"></path>
                    <path d="M23.3333333,15.3333333 C23.3333333,14.8733333 23.7066667,14.5 24.1666667,14.5 L30.8333333,14.5 C31.2933333,14.5 31.6666667,14.8733333 31.6666667,15.3333333 C31.6666667,15.7933333 31.2933333,16.1666667 30.8333333,16.1666667 L24.1666667,16.1666667 C23.7066667,16.1666667 23.3333333,15.7933333 23.3333333,15.3333333 Z" id="Path" fill="#BDC6CF"></path>
                    <path d="M35.8333333,11.1666667 L24.1666667,11.1666667 C23.7066667,11.1666667 23.3333333,10.7933333 23.3333333,10.3333333 C23.3333333,9.87333333 23.7066667,9.5 24.1666667,9.5 L35.8333333,9.5 C36.2933333,9.5 36.6666667,9.87333333 36.6666667,10.3333333 C36.6666667,10.7933333 36.2933333,11.1666667 35.8333333,11.1666667 Z" id="Path" fill="#BDC6CF"></path>
                </g>
                <g id="icon-background-40" fill="#D8D8D8" opacity="0">
                    <rect id="Rectangle-3" x="0" y="0" width="40" height="40"></rect>
                </g>
            </g>
        </g>
    </g>
</svg>