<?xml version="1.0" encoding="UTF-8"?>
<svg width="38px" height="38px" viewBox="0 0 38 38" version="1.1" xmlns="http://www.w3.org/2000/svg" xmlns:xlink="http://www.w3.org/1999/xlink">
    <!-- Generator: Sketch 49.1 (51147) - http://www.bohemiancoding.com/sketch -->
    <title>Group 3</title>
    <desc>Created with Sketch.</desc>
    <defs></defs>
    <g id="小程序新设计" stroke="none" stroke-width="1" fill="none" fill-rule="evenodd">
        <g id="我的" transform="translate(-31.000000, -595.000000)">
            <g id="Group-3" transform="translate(30.000000, 594.000000)">
                <g id="icon-background-40" fill="#D8D8D8" opacity="0">
                    <rect id="Rectangle-3" x="0" y="0" width="40" height="40"></rect>
                </g>
                <g id="profile-gallery" transform="translate(1.000000, 1.000000)" fill="#4A8CF2" fill-rule="nonzero">
                    <path d="M30.3130435,31.2382609 L30.3130435,4.2173913 L30.3130435,1.21913043 C30.3130435,0.591304348 29.8017391,0.0782608696 29.1721739,0.0782608696 L1.26782609,0.0782608696 C0.636521739,0.0782608696 0.123478261,0.591304348 0.123478261,1.21913043 L0.123478261,31.2382609 C0.123478261,31.8695652 0.636521739,32.3826087 1.26782609,32.3826087 L2.7373913,32.3826087 L29.1721739,32.3826087 C29.8017391,32.3826087 30.3130435,31.8695652 30.3130435,31.2382609 Z M23.0886957,26 L7.34782609,26 C6.48521739,26 5.78608696,25.2973913 5.78608696,24.4382609 C5.78608696,20.0730435 8.75652174,16.3078261 13.0069565,15.2782609 C13.3634783,15.1930435 13.626087,14.893913 13.666087,14.5304348 C13.7078261,14.1634783 13.5165217,13.813913 13.1895652,13.653913 C12.12,13.1234783 10.4556522,13.0678261 10.4556522,10.8886957 L10.4556522,9.56 C10.4556522,6.85217391 11.8452174,4.45913043 14.5565217,4.45913043 L15.8817391,4.45913043 C18.5895652,4.45913043 19.9808696,6.85217391 19.9808696,9.56 L19.9808696,10.8886957 C19.9808696,13.0678261 18.3165217,13.1269565 17.2486957,13.653913 C16.92,13.813913 16.7269565,14.1634783 16.7686957,14.5269565 C16.8086957,14.893913 17.0713043,15.1930435 17.4295652,15.2782609 C21.6817391,16.3078261 24.6521739,20.0730435 24.6521739,24.4382609 C24.6504348,25.2973913 23.9478261,26 23.0886957,26 Z" id="Shape"></path>
                    <path d="M37.6573913,6.43652174 C37.4765217,6.19130435 37.2121739,6.02956522 36.9095652,5.98086957 L32.0521739,5.23304348 L32.0521739,31.2382609 C32.0521739,32.8278261 30.7582609,34.1217391 29.1721739,34.1217391 L7.44,34.1217391 L31.9808696,37.9095652 C32.6313043,38.0017391 33.1895652,37.573913 33.2852174,36.9513043 L37.8643478,7.28521739 C37.9113043,6.9826087 37.8365217,6.68347826 37.6573913,6.43652174 Z" id="Shape"></path>
                </g>
            </g>
        </g>
    </g>
</svg>