<?xml version="1.0" encoding="UTF-8"?>
<svg width="37px" height="40px" viewBox="0 0 37 40" version="1.1" xmlns="http://www.w3.org/2000/svg" xmlns:xlink="http://www.w3.org/1999/xlink">
    <!-- Generator: Sketch 49.1 (51147) - http://www.bohemiancoding.com/sketch -->
    <title>合作保险公司</title>
    <desc>Created with Sketch.</desc>
    <defs></defs>
    <g id="小程序新设计" stroke="none" stroke-width="1" fill="none" fill-rule="evenodd">
        <g id="用户详情" transform="translate(-682.000000, -1032.000000)" fill="#C0C6CF" fill-rule="nonzero">
            <g id="合作保险公司" transform="translate(682.000000, 1032.000000)">
                <path d="M33.2762821,37.4961376 L33.2762821,4.50367984 L28.0706931,0.00443697917 L10.6079771,6.50285771 L10.6079771,8.16946109 L26.3919694,2.83707646 L26.3919694,39.8291158 L36.9703726,39.8291158 L36.9703726,37.4961376 L33.2762821,37.4961376 Z M4.89862665,27.3315626 L13.2944378,25.665279 L13.2944378,21.49957 L4.89862665,23.6658346 L4.89862665,27.3315626 Z M4.89862665,39.8291159 L13.2944378,39.8291159 L13.2944378,35.4963202 L4.89862665,36.1630148 L4.89862665,39.8291159 Z M4.89862665,33.6635361 L13.2944378,32.8303944 L13.2944378,28.6646854 L4.89862665,29.9977549 L4.89862665,33.6635361 Z M4.89862665,20.999589 L13.2944378,18.6668772 L13.2944378,14.334721 L4.89862665,17.1673605 L4.89862665,20.999589 Z M22.3613961,10.1689588 L17.6596221,7.33599953 L0.0295738701,13.6679731 L0.0295738701,39.995563 L2.37949827,39.995563 L2.37949827,14.834329 L15.6449504,10.5017998 L15.6449504,39.8290626 L22.5292631,39.8290626 L22.3613961,10.1689588 Z" id="Shape"></path>
            </g>
        </g>
    </g>
</svg>