<?xml version="1.0" encoding="UTF-8"?>
<svg width="40px" height="40px" viewBox="0 0 40 40" version="1.1" xmlns="http://www.w3.org/2000/svg" xmlns:xlink="http://www.w3.org/1999/xlink">
    <!-- Generator: Sketch 49.1 (51147) - http://www.bohemiancoding.com/sketch -->
    <title>earth</title>
    <desc>Created with Sketch.</desc>
    <defs></defs>
    <g id="小程序新设计" stroke="none" stroke-width="1" fill="none" fill-rule="evenodd">
        <g id="产品列表" transform="translate(-604.000000, -1487.000000)">
            <g id="earth" transform="translate(604.000000, 1487.000000)">
                <path d="M20,2.96059473e-16 C8.954305,-3.10862447e-15 1.33226763e-15,8.954305 0,20 C-1.33226763e-15,31.045695 8.954305,40 20,40 C31.045695,40 40,31.045695 40,20 C40,8.954305 31.045695,2.96059473e-15 20,2.96059473e-16 Z" id="_Compound_Path_" fill="#8B97A6" fill-rule="nonzero"></path>
                <path d="M17.0533333,12 L12.1866667,18.88 C12.717816,19.1023612 13.2663252,19.2807381 13.8266667,19.4133333 C13.8266667,19.4133333 24.08,14.7066667 24.08,21.1733333 C24.08,27.64 17.08,35.3866667 16.32,35.5333333 C15.5966742,35.6022951 14.9176987,35.1751976 14.6666667,34.4933333 C14.2933333,33.8266667 15.08,28.7866667 14.6666667,27.9466667 C14.2533333,27.1066667 13.3333333,27.2 12.7866667,26.4666667 C12.1713644,25.7773505 11.7806852,24.9169261 11.6666667,24 C11.6989278,23.1143831 11.9074364,22.2440861 12.28,21.44 C9.03592086,20.0660495 6.28401914,17.7418082 4.38666667,14.7733333 C4.53333333,14.2533333 4.69333333,13.76 4.86666667,13.28 C7.41872588,7.54992071 12.9871067,3.7516554 19.2533333,3.46666667 C19.4913736,3.54182954 19.7231879,3.63544685 19.9466667,3.74666667 C19.5866667,4 17.5733333,5.33333333 19.64,6.66666667 C20.4279109,7.06309196 21.0885757,7.67293644 21.5466667,8.42666667 C22.16,9.86666667 19.84,10.6266667 18.88,11.1733333 C12.84,14.6266667 11.0933333,14.6666667 10.88,16.5066667 C10.7385859,17.4902904 11.2741171,18.4465959 12.1866667,18.84 L17.0533333,12 Z" id="_Compound_Path_-path" fill="#BDC6CF"></path>
                <path d="M31.3733333,11.2 C31.4497396,11.0324183 31.4905983,10.8508244 31.4933333,10.6666667 C31.4933333,9.90666667 30.2933333,9.57333333 29.9066667,8.96 C29.52,8.34666667 30.0666667,7.77333333 30.7733333,7.4 C36.0349975,11.8576961 37.952232,19.1272104 35.5733333,25.6 C35.2533333,21.6 33.6666667,22.08 33.6666667,22.08 C31.5862467,22.5014048 29.4615478,21.5954004 28.3253863,19.8023955 C27.1892248,18.0093906 27.2772475,15.7012655 28.5466667,14 C29.3333333,13.0133333 30.8533333,12.3333333 31.3733333,11.2 Z" id="_Compound_Path_-path" fill="#FFFFFF"></path>
            </g>
        </g>
    </g>
</svg>