<?xml version="1.0" encoding="UTF-8"?>
<svg width="40px" height="40px" viewBox="0 0 40 40" version="1.1" xmlns="http://www.w3.org/2000/svg" xmlns:xlink="http://www.w3.org/1999/xlink">
    <!-- Generator: Sketch 50.2 (55047) - http://www.bohemiancoding.com/sketch -->
    <title>商城-选中</title>
    <desc>Created with Sketch.</desc>
    <defs></defs>
    <g id="小程序新设计" stroke="none" stroke-width="1" fill="none" fill-rule="evenodd">
        <g id="Group-5-Copy">
            <g id="Group-17-Copy">
                <rect id="Rectangle-74" stroke="#979797" fill="#D8D8D8" opacity="0" x="0.5" y="0.5" width="39" height="39"></rect>
                <g id="Group-16" transform="translate(0.000000, 1.000000)">
                    <g id="Group-14">
                        <path d="M3.97705922,4.88498131e-15 L36.0227263,-1.22124533e-15 C36.4045076,-1.29137741e-15 36.7529748,0.217380044 36.9208559,0.560269119 L37.9000706,2.56026912 C38.1429273,3.05629239 37.9376952,3.65527293 37.4416719,3.89812959 C37.3047744,3.96515565 37.1543662,4 37.001941,4 L2.99784445,4 C2.4455597,4 1.99784445,3.55228475 1.99784445,3 C1.99784445,2.84757482 2.0326888,2.69716669 2.09971486,2.56026912 L3.07892964,0.560269119 C3.24681066,0.217380044 3.59527793,4.73306879e-15 3.97705922,4.6629367e-15 Z" id="Rectangle-71-Copy" fill="#A3C5F8"></path>
                        <path d="M10,15.7324356 L10,18 C10,23.5228475 14.4771525,28 20,28 C25.5228475,28 30,23.5228475 30,18 L30,15.7324356 C30.5978014,15.3866262 31,14.7402824 31,14 C31,12.8954305 30.1045695,12 29,12 C27.8954305,12 27,12.8954305 27,14 C27,14.7402824 27.4021986,15.3866262 28,15.7324356 L28,18 C28,22.418278 24.418278,26 20,26 C15.581722,26 12,22.418278 12,18 L12,15.7324356 C12.5978014,15.3866262 13,14.7402824 13,14 C13,12.8954305 12.1045695,12 11,12 C9.8954305,12 9,12.8954305 9,14 C9,14.7402824 9.40219863,15.3866262 10,15.7324356 Z M2.88460941,6 L37.11536,6 C37.6433504,6 38.080366,6.41047713 38.1134008,6.93743307 L39.7942572,33.7497323 C39.9324762,35.9545431 38.2571726,37.853944 36.0523618,37.9921631 C35.9690414,37.9973864 35.885578,38 35.8020941,38 L4.19787533,38 C1.98873633,38 0.197875334,36.209139 0.197875334,34 C0.197875334,33.9165161 0.20048892,33.8330526 0.205712252,33.7497323 L1.88656864,6.93743307 C1.91960338,6.41047713 2.35661902,6 2.88460941,6 Z" id="Combined-Shape" fill="#4A8CF2"></path>
                    </g>
                </g>
            </g>
        </g>
    </g>
</svg>