<?xml version="1.0" encoding="UTF-8"?>
<svg width="40px" height="40px" viewBox="0 0 40 40" version="1.1" xmlns="http://www.w3.org/2000/svg" xmlns:xlink="http://www.w3.org/1999/xlink">
    <!-- Generator: Sketch 50.2 (55047) - http://www.bohemiancoding.com/sketch -->
    <title>首页</title>
    <desc>Created with Sketch.</desc>
    <defs></defs>
    <g id="小程序新设计" stroke="none" stroke-width="1" fill="none" fill-rule="evenodd">
        <g id="Group-27">
            <rect id="Rectangle-85" stroke="#979797" fill="#D8D8D8" opacity="0" x="0.5" y="0.5" width="39" height="39"></rect>
            <g id="Group" transform="translate(3.000000, 2.000000)" stroke-width="0.5">
                <g id="Group-3" fill="#777777" stroke="#777777">
                    <path d="M33.1988635,12.0084061 C33.1699193,11.4205346 32.6745389,10.9677038 32.0924521,10.9971123 C31.5103232,11.0265207 31.0622142,11.5269329 31.0911584,12.1148043 L31.8658276,29.2380997 C31.9221151,30.4260997 31.4941869,31.5854999 30.6818524,32.4463041 C29.8693493,33.3071508 28.7434732,33.7944121 27.5661126,33.7944121 L6.40960206,33.7944121 C5.23224146,33.7942419 4.10636538,33.3071508 3.29386228,32.4463041 C2.48148558,31.5854999 2.05359958,30.4260997 2.10988706,29.2380997 L3.17420925,6.25443275 C3.28396141,3.93690921 5.17726005,2.11583978 7.47392424,2.11852102 L26.5121547,2.11852102 C28.8068387,2.11869126 30.6970197,3.93907973 30.8066033,6.25443275 C30.8357582,6.84226165 31.331265,7.29513505 31.9133939,7.26568402 C32.4953121,7.23627555 32.9436318,6.73586343 32.9144769,6.14786429 C32.745783,2.70154072 29.9281225,-0.00412353328 26.5121547,4.71777891e-06 L7.46878421,4.71777891e-06 C4.04894035,-0.00395329612 1.22976315,2.7078395 1.06646203,6.15867435 L0.00727987708,29.1370214 C-0.0761823286,30.9060408 0.560885825,32.632501 1.77039264,33.9145995 C2.97998372,35.1966981 4.65639016,35.922717 6.40960206,35.9237385 L27.571379,35.9237385 C29.3245909,35.922717 31.0009552,35.1966981 32.2104199,33.9145995 C33.4200531,32.632501 34.0571213,30.9060408 33.9735327,29.1370214 L33.1988635,12.0084061 Z" id="Fill-1"></path>
                </g>
                <path d="M9.12324907,8.59289074 C9.12324907,7.73289518 8.51710533,6.99457663 7.68025031,6.83549001 C6.84356382,6.67640338 6.01311276,7.14153385 5.7035316,7.94271247 C5.39395043,8.74401877 5.69266171,9.65436197 6.41483519,10.1100443 C7.16051797,15.4316152 11.66971,19.3875012 16.9904362,19.3875012 C22.3111623,19.3875012 26.8205651,15.4316152 27.5660793,10.1100443 C28.2169665,9.70177302 28.5354374,8.91791603 28.3557051,8.16546779 C28.1761834,7.41301956 27.5390731,6.86191932 26.7754424,6.79825063 C26.0118116,6.73458193 25.2939356,7.17281493 24.9947608,7.88534255 C24.695544,8.59787017 24.8823544,9.42377574 25.4583742,9.93431697 C24.8137224,14.1578583 21.2156208,17.2749857 16.9851698,17.2749857 C12.7547608,17.2749857 9.15682776,14.1578583 8.51217596,9.93431697 C8.89877323,9.59784323 9.12177447,9.10841141 9.12324907,8.59289074 Z" id="Fill-4" stroke="#797979" fill="#797979"></path>
            </g>
        </g>
    </g>
</svg>