<?xml version="1.0" encoding="UTF-8"?>
<svg width="40px" height="32px" viewBox="0 0 40 32" version="1.1" xmlns="http://www.w3.org/2000/svg" xmlns:xlink="http://www.w3.org/1999/xlink">
    <!-- Generator: Sketch 49.1 (51147) - http://www.bohemiancoding.com/sketch -->
    <title>email</title>
    <desc>Created with Sketch.</desc>
    <defs></defs>
    <g id="小程序新设计" stroke="none" stroke-width="1" fill="none" fill-rule="evenodd">
        <g id="用户详情" transform="translate(-680.000000, -824.000000)" fill="#C0C6CF" fill-rule="nonzero">
            <g id="email" transform="translate(680.000000, 824.000000)">
                <path d="M2,-8.8817842e-16 L38,-8.8817842e-16 C39.1045695,-1.09108455e-15 40,0.8954305 40,2 L40,30 C40,31.1045695 39.1045695,32 38,32 L2,32 C0.8954305,32 1.3527075e-16,31.1045695 0,30 L0,2 C-1.3527075e-16,0.8954305 0.8954305,-6.85272294e-16 2,-8.8817842e-16 Z M10.5066667,23.84 L10.52,23.8 C10.9415734,23.3784266 11.1062165,22.76397 10.95191,22.18809 C10.7976034,21.6122101 10.3477899,21.1623966 9.77190998,21.00809 C9.19603001,20.8537835 8.5815734,21.0184266 8.16,21.44 L4.26666667,25.3333333 C4.67077244,26.4499123 5.55008775,27.3292276 6.66666667,27.7333333 L10.5066667,23.84 Z M33.3333333,27.7333333 C34.4499123,27.3292276 35.3292276,26.4499123 35.7333333,25.3333333 L31.8,21.48 C31.148304,20.828304 30.091696,20.828304 29.44,21.48 C28.788304,22.131696 28.788304,23.188304 29.44,23.84 L33.3333333,27.7333333 Z M36,8.68 L36,8 C35.9940468,6.7125705 35.3687823,5.50670333 34.32,4.76 L23.8,14.8533333 C21.5108497,17.1332852 17.8091503,17.1332852 15.52,14.8533333 L5.61333333,4.81333333 C4.60482808,5.56314382 4.00733307,6.74331991 4,8 L4,8.88 L12.6666667,17.6933333 C16.515968,21.5241775 22.7373653,21.5241775 26.5866667,17.6933333 L36,8.68 Z" id="Shape"></path>
            </g>
        </g>
    </g>
</svg>