<?xml version="1.0" encoding="utf-8"?>
<!DOCTYPE svg PUBLIC "-//W3C//DTD SVG 1.1//EN" "http://www.w3.org/Graphics/SVG/1.1/DTD/svg11.dtd">

<svg xmlns="http://www.w3.org/2000/svg" xmlns:xlink="http://www.w3.org/1999/xlink" t="1525760583232" class="icon" style="" viewBox="0 0 1081 1024" version="1.1" p-id="2663" data-spm-anchor-id="a313x.7781069.0.i1" width="211.1328125" height="200" fill="#fff">
  <defs>
    <style type="text/css"/>
  </defs>
  <path d="M57.12896 398.222222h955.733333c31.288889 0 56.888889 25.6 56.888889 56.888889v5.688889l-45.511111 512c-2.844444 28.444444-28.444444 51.2-56.888889 51.2H102.640071c-28.444444 0-54.044444-22.755556-56.888889-51.2L0.240071 460.8c-2.844444-31.288889 19.911111-59.733333 51.2-62.577778H57.12896z m93.866667-199.111111h768c22.755556 0 42.666667 19.911111 42.666666 42.666667s-19.911111 42.666667-42.666666 42.666666h-768c-22.755556 0-42.666667-19.911111-42.666667-42.666666S128.240071 199.111111 150.995627 199.111111z m113.777777-199.111111h540.444445c22.755556 0 42.666667 19.911111 42.666667 42.666667S827.973404 85.333333 805.217849 85.333333h-540.444445c-22.755556 0-42.666667-19.911111-42.666666-42.666666S242.017849 0 264.773404 0z" p-id="2664" data-spm-anchor-id="a313x.7781069.0.i0" class=""/>
</svg>
