<?xml version="1.0" encoding="UTF-8"?>
<svg width="40px" height="40px" viewBox="0 0 40 40" version="1.1" xmlns="http://www.w3.org/2000/svg" xmlns:xlink="http://www.w3.org/1999/xlink">
    <!-- Generator: Sketch 49.1 (51147) - http://www.bohemiancoding.com/sketch -->
    <title>like</title>
    <desc>Created with Sketch.</desc>
    <defs></defs>
    <g id="小程序新设计" stroke="none" stroke-width="1" fill="none" fill-rule="evenodd">
        <g id="C端-产品详情页" transform="translate(-168.000000, -1984.000000)">
            <g id="like" transform="translate(168.000000, 1984.000000)">
                <path d="M39.1066667,16.7733333 C36.32,12.84 32.32,16.6666667 29.5066667,13.1733333 C28.6705439,12.1273125 28.3255886,10.771784 28.56,9.45333333 C29.5466667,3.86666667 30.0133333,2.90666667 28.8133333,1.45333333 C28.3189353,0.710431178 27.4857083,0.264066785 26.5933333,0.264066785 C25.7009584,0.264066785 24.8677314,0.710431178 24.3733333,1.45333333 C20.9846057,7.03600221 16.4821424,11.8607184 11.1466667,15.6266667 C12.2096948,22.4290358 12.2860363,29.3491683 11.3733333,36.1733333 C19.3733333,37.12 24.0266667,41.7866667 30.9333333,38.1333333 C36.7333333,35.0533333 41.76,20.5333333 39.1066667,16.7733333 Z" id="Shape" fill="#4A8CF2" fill-rule="nonzero"></path>
                <path d="M6.98666667,38.6666667 C8.33827525,30.7237556 8.33827525,22.6095777 6.98666667,14.6666667 L0,14.6666667 L0,38.6666667 L6.98666667,38.6666667 Z" id="Path" fill="#A3C5F8"></path>
            </g>
        </g>
    </g>
</svg>