<?xml version="1.0" encoding="UTF-8"?>
<svg width="40px" height="40px" viewBox="0 0 40 40" version="1.1" xmlns="http://www.w3.org/2000/svg" xmlns:xlink="http://www.w3.org/1999/xlink">
    <!-- Generator: Sketch 50.2 (55047) - http://www.bohemiancoding.com/sketch -->
    <title>列表</title>
    <desc>Created with Sketch.</desc>
    <defs></defs>
    <g id="小程序新设计" stroke="none" stroke-width="1" fill="none" fill-rule="evenodd">
        <g id="Group-24">
            <rect id="Rectangle-83" stroke="#979797" fill="#D8D8D8" opacity="0" x="0.5" y="0.5" width="39" height="39"></rect>
            <g id="应用-copy" transform="translate(2.000000, 2.000000)" stroke="#8B97A6" stroke-width="3">
                <path d="M33.4063147,35.9741725 L23.1351705,35.9741725 C21.7174419,35.9741725 20.5676283,34.8218915 20.5676283,33.4041056 L20.5676283,23.133076 C20.5676283,21.7152901 21.7174419,20.5678865 23.1351705,20.5678865 L33.4063148,20.5678865 C34.823986,20.5678865 35.973857,21.7152901 35.973857,23.133076 L35.973857,33.4041056 C35.9738569,34.8218915 34.8239859,35.9741725 33.4063147,35.9741725 Z" id="Shape" fill-rule="nonzero"></path>
                <path d="M33.4063147,15.4326299 L23.1351705,15.4326299 C21.7174419,15.4326299 20.5676283,14.2796604 20.5676283,12.8619317 L20.5676283,2.59153346 C20.5676283,1.1738049 21.7174419,0.0257701121 23.1351705,0.0257701121 L33.4063148,0.0257701121 C34.823986,0.0257701121 35.973857,1.1738049 35.973857,2.59153346 L35.973857,12.8619892 C35.9738569,14.2797177 34.8239859,15.4326299 33.4063147,15.4326299 Z" id="Path"></path>
                <path d="M12.8647148,35.9741725 L2.59362785,35.9741725 C1.17589929,35.9741725 0.0260282804,34.8218915 0.0260282804,33.4041056 L0.0260282804,23.133076 C0.0260282804,21.7152901 1.17589929,20.5678865 2.59362785,20.5678865 L12.8647147,20.5678865 C14.2824433,20.5678865 15.4323143,21.7152901 15.4323143,23.133076 L15.4323143,33.4041056 C15.4323144,34.8218915 14.2824433,35.9741725 12.8647148,35.9741725 Z" id="Path"></path>
                <path d="M12.8647148,15.4326299 L2.59362785,15.4326299 C1.17589929,15.4326299 0.0260282804,14.2796604 0.0260282804,12.8619317 L0.0260282804,2.59153346 C0.0260282804,1.1738049 1.17589929,0.0257701121 2.59362785,0.0257701121 L12.8647147,0.0257701121 C14.2824433,0.0257701121 15.4323143,1.1738049 15.4323143,2.59153346 L15.4323143,12.8619892 C15.4323144,14.2797177 14.2824433,15.4326299 12.8647148,15.4326299 Z" id="Path"></path>
            </g>
        </g>
    </g>
</svg>