<?xml version="1.0" encoding="UTF-8"?>
<svg width="40px" height="40px" viewBox="0 0 40 40" version="1.1" xmlns="http://www.w3.org/2000/svg" xmlns:xlink="http://www.w3.org/1999/xlink">
    <!-- Generator: Sketch 49.1 (51147) - http://www.bohemiancoding.com/sketch -->
    <title>phone-handset-call</title>
    <desc>Created with Sketch.</desc>
    <defs></defs>
    <g id="小程序新设计" stroke="none" stroke-width="1" fill="none" fill-rule="evenodd">
        <g id="用户详情" transform="translate(-680.000000, -620.000000)" fill="#C0C6CF" fill-rule="nonzero">
            <g id="phone-handset-call" transform="translate(680.000000, 620.000000)">
                <path d="M36.6665,0 L3.3335,0 C1.5005,0 0,1.5005 0,3.3335 L0,36.6665 C0,38.4995 1.5005,40 3.3335,40 L36.6665,40 C38.4995,40 40,38.4995 40,36.6665 L40,3.3335 C40,1.5005 38.4995,0 36.6665,0 Z M16.5861769,9.32514035 L17.9508929,15.4366643 L15.4650591,17.9224981 C17.103779,20.8962357 19.5623893,23.354846 22.5350662,24.9946266 L25.0219608,22.5077321 L31.1320705,23.8738624 L31.1320705,30.539758 C19.4379385,30.5383438 9.92098834,21.024222 9.91886702,9.32655456 L16.5861769,9.32514035 Z" id="Shape"></path>
            </g>
        </g>
    </g>
</svg>