<?xml version="1.0" standalone="no"?><!DOCTYPE svg PUBLIC "-//W3C//DTD SVG 1.1//EN" "http://www.w3.org/Graphics/SVG/1.1/DTD/svg11.dtd"><svg t="1525702193997" class="icon" style="" viewBox="0 0 1024 1024" version="1.1" xmlns="http://www.w3.org/2000/svg" p-id="2426" xmlns:xlink="http://www.w3.org/1999/xlink" width="32" height="32"><defs><style type="text/css"></style></defs><path d="M169.467181 98.184183c0-19.775392 16.210193-35.794228 36.021401-35.794228l611.364055 0c19.898189 0 36.021401 15.981996 36.021401 35.794228l0 827.598888c0 19.776416-16.211217 35.827997-36.021401 35.827997L205.489606 961.611068c-19.898189 0-36.021401-15.980973-36.021401-35.827997L169.468205 98.184183zM510.732635 609.966219l-93.224218-154.097634c-3.8814-6.462179-9.0624-9.061376-14.683421-9.061376-3.8814 0-7.762801 1.299599-11.644201 3.477194-6.480598 3.441379-11.222599 9.484002-11.222599 16.402575 0 3.0208 0.860601 6.0416 3.0208 9.063423l73.798796 114.368794-59.994396 0c-9.485025 0-14.665001 4.743024-14.665001 14.684444 0 9.905604 5.179976 14.645558 14.665001 14.645558l78.119195 0 16.403598 25.467021 0 20.302395-94.944396 0c-9.94142 0-14.683421 4.321422-14.683421 14.226003 0 9.94142 5.180999 14.682397 14.683421 14.682397l94.944396 0 0 76.397994c0 11.661597 7.341199 17.704221 19.424398 17.704221 11.661597 0 19.424398-6.0416 19.424398-17.704221L530.154987 694.128037l94.522794 0c9.0624 0 14.683421-4.740978 14.683421-14.682397 0-10.327206-4.742001-14.226003-14.683421-14.226003l-94.522794 0 0-19.847024 15.981996-25.922393 78.980819 0c9.061376 0 14.665001-4.740978 14.665001-15.103999 0-9.905604-5.163603-14.226003-14.665001-14.226003l-60.434417 0 73.377194-114.368794c2.160199-3.477194 3.0208-6.499018 3.0208-9.519818 0-6.462179-4.320399-12.0832-10.783601-15.94618-3.8814-2.600221-8.201799-3.89982-12.0832-3.89982-5.619998 0-11.223622 2.599198-15.105023 9.484002L510.732635 609.966219zM738.891032 225.338165c-1.036609-14.858406-13.944594-26.063609-28.785603-25.00858-1.335415 0.069585-2.599198 0.350994-3.828188 0.667196l-3.653203 1.052982-0.088004-0.069585c-49.176003 21.321608-102.549607 35.090193-159.066809 39.059598-77.749782 5.443989-152.375409-8.043187-219.74682-36.038798l-0.034792 0.034792-1.966795-0.632403-0.229221 0.562818c-0.069585-0.035816-0.140193-0.070608-0.192382-0.070608l0.034792-0.596588-4.89959-1.581008-4.864798-1.546216c-2.38942-0.772596-6.936993-0.772596-6.990205-0.772596l-2.248204 0.210801c-14.858406 1.01819-24.060999 14.366196-23.042809 29.225625 0.456395 6.462179 3.40761 12.258185 7.762801 16.685008 0.034792 0.069585 0.106424 0.105401 0.141216 0.140193 0.667196 0.667196 1.562589 1.054005 2.282996 1.650593 4.742001 2.916423 13.944594 6.568602 13.944594 6.568602 74.5366 30.80561 157.397796 45.874817 243.315608 39.868009 62.08501-4.356214 121.184013-19.002796 175.312818-42.256406l-0.122797-0.316202C732.534254 247.960395 739.71684 237.352803 738.891032 225.338165z" p-id="2427" fill="#d81e06"></path></svg>