<?xml version="1.0" encoding="UTF-8"?>
<svg width="40px" height="40px" viewBox="0 0 40 40" version="1.1" xmlns="http://www.w3.org/2000/svg" xmlns:xlink="http://www.w3.org/1999/xlink">
    <!-- Generator: Sketch 49.1 (51147) - http://www.bohemiancoding.com/sketch -->
    <title>转发</title>
    <desc>Created with Sketch.</desc>
    <defs></defs>
    <g id="小程序新设计" stroke="none" stroke-width="1" fill="none" fill-rule="evenodd">
        <g id="名片详情页-copy" transform="translate(-606.000000, -471.000000)">
            <g id="转发" transform="translate(606.000000, 471.000000)">
                <path d="M2.86420941,22.8501416 C1.28146602,22.8501416 0,24.125529 0,25.6987991 L0,37.1443411 C0,38.7151219 1.28235027,39.9929987 2.86420941,39.9929987 L37.1357906,39.9929987 C38.718534,39.9929987 40,38.7176113 40,37.1443411 L40,25.6987991 C40,24.1280183 38.7176497,22.8501416 37.1357906,22.8501416 C35.5617369,22.8501416 34.2857143,24.1168648 34.2857143,25.704572 L34.2857143,32.8543841 C34.2857143,33.6410193 33.6352777,34.278713 32.8688527,34.278713 L7.1311473,34.278713 C6.34863629,34.278713 5.7142857,33.6315183 5.7142857,32.8543841 L5.7142857,25.704572 C5.7142857,24.1281136 4.42267102,22.8501416 2.86420941,22.8501416 Z" id="Shape" fill="#BDC6CF" fill-rule="nonzero"></path>
                <path d="M27.1428571,15.8208814 L27.1428571,20.0968017 C27.1428571,21.6775669 28.0709057,22.0875544 29.2269504,21.001981 L39.7638079,11.1074392 C40.0757603,10.7772764 40.0808327,10.2210791 39.766344,9.88583695 L29.2842596,0.575367266 C28.1015957,-0.475106719 27.1428571,-0.0485464453 27.1428571,1.53998457 L27.1428571,5.82253813 C12.4759374,5.5738773 5.7142857,13.5243499 5.7142857,21.5304587 C5.7142857,21.5304587 7.89658414,15.820882 27.1428571,15.8208814 Z" id="Path" fill="#8B97A6"></path>
            </g>
        </g>
    </g>
</svg>