<?xml version="1.0" encoding="UTF-8"?>
<svg width="35px" height="40px" viewBox="0 0 35 40" version="1.1" xmlns="http://www.w3.org/2000/svg" xmlns:xlink="http://www.w3.org/1999/xlink">
    <!-- Generator: Sketch 49.1 (51147) - http://www.bohemiancoding.com/sketch -->
    <title>user-c</title>
    <desc>Created with Sketch.</desc>
    <defs></defs>
    <g id="小程序新设计" stroke="none" stroke-width="1" fill="none" fill-rule="evenodd">
        <g id="客户1" transform="translate(-451.000000, -1240.000000)" fill-rule="nonzero">
            <g id="user-c" transform="translate(451.000000, 1240.000000)">
                <path d="M34.9447368,35.4634545 L33.9470526,30.5398182 C33.7639542,29.6360307 33.1307549,28.8846644 32.2637368,28.5423636 L25.1364474,25.9241818 C24.3821333,25.6260781 23.7989868,25.0153919 23.5421053,24.2545455 L23.2339211,23.3423636 L18.9554474,25.1587273 C18.0260718,25.5533134 16.9731914,25.5533134 16.0438158,25.1587273 L11.7658947,23.3427273 L11.4578947,24.2545455 C11.2009035,25.0157166 10.617376,25.6265819 9.86263158,25.9245455 L2.73534211,28.5427273 C1.86832402,28.8850281 1.23512479,29.6363943 1.05202632,30.5401818 L0.0552631579,35.4634545 C-0.0924559712,36.1861119 0.0630190361,36.9370049 0.486153999,37.5445151 C0.909288962,38.1520253 1.5639169,38.5642265 2.30042105,38.6869091 C7.32638053,39.5004828 12.4072663,39.9394203 17.5,40 C22.5930418,39.9394727 27.6742377,39.5005351 32.7005,38.6869091 C33.4368596,38.5640573 34.0912895,38.1517763 34.514242,37.5442789 C34.9371945,36.9367814 35.0925246,36.1859835 34.9447368,35.4634545 Z" id="Shape" fill="#4A8CF2"></path>
                <path d="M19.9840789,0.229090909 C19.1619956,0.0993777724 18.3321997,0.0228509395 17.5,0 C14.8058622,0.201257202 12.1333049,0.622948101 9.50986842,1.26072727 C8.15301651,1.56652557 7.24014369,2.82289564 7.38186842,4.18945455 L7.68636842,7.26218182 C13.2104737,7.17418182 18.7089737,4.774 19.9840789,0.229090909 Z" id="Shape" fill="#A3C5F8"></path>
                <path d="M7.86578947,9.07490909 L8.82368421,18.7454545 C8.92253036,19.7204932 9.543749,20.5682434 10.451,20.9661818 L16.0436316,23.3405455 C16.9729084,23.7356047 18.0259864,23.7356047 18.9552632,23.3405455 L24.5480789,20.9661818 C25.4556878,20.5684958 26.0772935,19.7206973 26.1763158,18.7454545 L27.6183158,4.19018182 C27.7601407,2.82365632 26.8473266,1.56725823 25.4905,1.26145455 C24.4416053,1.02509091 23.1187895,0.754909091 21.8105263,0.523636364 C20.4191842,6.01036364 14.1770263,8.92890909 7.86578947,9.07490909 Z" id="Shape" fill="#4A8CF2"></path>
            </g>
        </g>
    </g>
</svg>