<?xml version="1.0" encoding="UTF-8"?>
<svg width="38px" height="31px" viewBox="0 0 38 31" version="1.1" xmlns="http://www.w3.org/2000/svg" xmlns:xlink="http://www.w3.org/1999/xlink">
    <!-- Generator: Sketch 49.1 (51147) - http://www.bohemiancoding.com/sketch -->
    <title>Group 4</title>
    <desc>Created with Sketch.</desc>
    <defs></defs>
    <g id="小程序新设计" stroke="none" stroke-width="1" fill="none" fill-rule="evenodd">
        <g id="名片详情页-copy" transform="translate(-107.000000, -475.000000)">
            <g id="Group-4" transform="translate(106.000000, 470.000000)">
                <g id="icon-background-40" fill="#D8D8D8" opacity="0">
                    <rect id="Rectangle-3" x="0" y="0" width="40" height="40"></rect>
                </g>
                <g id="view" transform="translate(1.000000, 5.000000)">
                    <path d="M19,11.625 C16.9289322,11.625 15.25,13.3598966 15.25,15.5 C15.25,17.6401034 16.9289322,19.375 19,19.375 C21.0710678,19.375 22.75,17.6401034 22.75,15.5 C22.75,13.3598966 21.0710678,11.625 19,11.625 Z" id="Path" fill="#BDC6CF"></path>
                    <path d="M37.45,13.9629167 C37.8762031,14.93667 37.8942959,16.0490804 37.5,17.0370833 C33.6,25.1745833 27.2625,30.2895833 19,30.2379167 C10.7375,30.18625 4.45,25.1745833 0.55,17.05 C0.143582495,16.063821 0.143582495,14.9490957 0.55,13.9629167 C4.45,5.82541667 10.7375,0.710416667 19,0.762083333 C27.2625,0.81375 33.55,5.82541667 37.45,13.9629167 Z M19,24.7225 C21.3659093,24.7225024 23.634735,23.7504369 25.3065127,22.0205104 C26.9782905,20.2905838 27.9158182,17.9447706 27.9125,15.5 C27.9124965,11.7686723 25.736635,8.40499987 22.4000562,6.97829224 C19.0634774,5.55158461 15.223697,6.34299287 12.672151,8.98328829 C10.120605,11.6235837 9.36010842,15.5924621 10.7454682,19.0382572 C12.130828,22.4840523 15.3890413,24.7277259 19,24.7225 Z" id="Combined-Shape" fill="#8B97A6"></path>
                </g>
            </g>
        </g>
    </g>
</svg>