<?xml version="1.0" standalone="no"?><!DOCTYPE svg PUBLIC "-//W3C//DTD SVG 1.1//EN" "http://www.w3.org/Graphics/SVG/1.1/DTD/svg11.dtd"><svg t="1521787817067" class="icon" style="" viewBox="0 0 1024 1024" version="1.1" xmlns="http://www.w3.org/2000/svg" p-id="2859" xmlns:xlink="http://www.w3.org/1999/xlink" width="200" height="200"><defs><style type="text/css"></style></defs><path d="M964.991577 228.065647C1059.684731-17.624699 877.976246 0.290222 877.976246 0.290222 760.249621 0.290222 614.370978 107.779748 614.370978 107.779748S437.781041 61.712808 263.750379 166.643061c-189.386309 122.845173-184.26776 340.383501-184.26776 340.383501C235.59836 281.810411 450.577413 192.235805 450.577413 192.235805v15.355647C133.227382 425.12978 56.449149 747.59836 38.534228 811.580221c-17.914921 66.541136-5.118549 212.419779 127.963722 212.419779S435.221767 916.510473 435.221767 916.510473s28.152019 5.118549 110.048801 5.118549c335.264952 0 414.60246-299.43511 414.60246-299.43511H662.997192s-20.474196 97.252429-127.963722 97.252429c-145.878643 0-138.20082-153.556467-138.20082-153.556467h568.158927c25.592744-394.128265-317.350031-450.432302-317.350031-450.432302s120.285899-87.015331 225.216151-87.015331c166.352839 0 87.015331 197.064132 87.015331 197.064132l5.118549 2.559274zM419.86612 911.391924s-204.741956 125.404448-296.875836 38.389117C74.36407 862.76571 153.701578 739.920537 153.701578 739.920537s66.541136 125.404448 266.164542 171.471387zM665.556467 432.807603H394.273375s-2.559274-133.082271 138.200821-133.082271c138.20082 0 133.082271 133.082271 133.082271 133.082271z" fill="#C0C6CF" p-id="2860"></path></svg>