<?xml version="1.0" encoding="UTF-8"?>
<svg width="40px" height="33px" viewBox="0 0 40 33" version="1.1" xmlns="http://www.w3.org/2000/svg" xmlns:xlink="http://www.w3.org/1999/xlink">
    <!-- Generator: Sketch 49.1 (51147) - http://www.bohemiancoding.com/sketch -->
    <title>logo-wechat</title>
    <desc>Created with Sketch.</desc>
    <defs></defs>
    <g id="小程序新设计" stroke="none" stroke-width="1" fill="none" fill-rule="evenodd">
        <g id="用户详情" transform="translate(-680.000000, -933.000000)" fill="#C0C6CF" fill-rule="nonzero">
            <g id="logo-wechat" transform="translate(680.000000, 933.000000)">
                <path d="M14.5075,0.49665 C6.28916667,0.49665 0,6.01755 0,12.035925 C0,18.0543 5.43,21.541575 5.43,21.541575 L4.5475,24.853125 C4.43083333,25.28955 4.90333333,25.650075 5.3,25.427325 L9.26666667,23.2023 C11.0208333,23.75505 14.7433333,23.9316 15.1058333,23.9481 C14.8458333,23.05545 14.7175,22.176 14.7175,21.355125 C14.7175,16.710375 18.8025,10.168125 27.8833333,10.168125 C28.09,10.168125 28.2966667,10.173075 28.5033333,10.181325 C27.295,4.455825 21.29,0.49665 14.5075,0.49665 Z M9.09833333,10.085625 C8.1025,10.085625 7.295,9.2862 7.295,8.300325 C7.295,7.31445 8.1025,6.515025 9.09833333,6.515025 C10.0941667,6.515025 10.9016667,7.31445 10.9016667,8.300325 C10.9016667,9.2862 10.0941667,10.085625 9.09833333,10.085625 Z M19.5808333,10.085625 C18.585,10.085625 17.7775,9.2862 17.7775,8.300325 C17.7775,7.31445 18.585,6.515025 19.5808333,6.515025 C20.5766667,6.515025 21.3841667,7.31445 21.3841667,8.300325 C21.3841667,9.2862 20.5766667,10.085625 19.5808333,10.085625 Z" id="Shape"></path>
                <path d="M40,20.6283 C40,15.35655 33.7525,11.496375 27.8825,11.496375 C19.5808333,11.496375 16.0583333,17.43225 16.0583333,21.355125 C16.0583333,25.28625 19.58,31.213875 27.8825,31.213875 C29.7191667,31.213875 31.335,30.953175 32.74,30.491175 L35.8625,32.453025 C36.1091667,32.608125 36.4208333,32.3895 36.355,32.10735 L35.6466667,29.0631 C38.5966667,27.02865 40,23.821875 40,20.6283 Z M24.0875,19.625925 C23.2075,19.625925 22.4941667,18.919725 22.4941667,18.048525 C22.4941667,17.177325 23.2075,16.471125 24.0875,16.471125 C24.9675,16.471125 25.6808333,17.177325 25.6808333,18.048525 C25.6808333,18.919725 24.9675,19.625925 24.0875,19.625925 Z M32.0541667,19.625925 C31.1741667,19.625925 30.4608333,18.919725 30.4608333,18.048525 C30.4608333,17.177325 31.1741667,16.471125 32.0541667,16.471125 C32.9341667,16.471125 33.6475,17.177325 33.6475,18.048525 C33.6475,18.919725 32.9333333,19.625925 32.0541667,19.625925 Z" id="Shape"></path>
            </g>
        </g>
    </g>
</svg>